<svg width="48" height="48" viewBox="0 0 48 48" fill="none" xmlns="http://www.w3.org/2000/svg">
<circle cx="24" cy="24" r="24" fill="black"/>
<path d="M17.7382 34.6047C16.1768 34.6047 14.7341 34.3508 13.4099 33.843C12.1055 33.3157 10.9691 32.5834 10.0007 31.6459C9.03224 30.689 8.28121 29.566 7.74759 28.2771C7.23374 26.9686 6.97681 25.5331 6.97681 23.9707C6.97681 22.4474 7.2535 21.0413 7.80688 19.7523C8.36027 18.4634 9.12117 17.3502 10.0896 16.4127C11.0778 15.4558 12.234 14.7136 13.5581 14.1863C14.9021 13.659 16.3646 13.3954 17.9457 13.3954C18.9339 13.3954 19.9023 13.5223 20.851 13.7762C21.7996 14.0301 22.6791 14.4109 23.4894 14.9187C24.3195 15.4069 25.031 15.9928 25.6239 16.6764L22.5408 20.1624C22.1257 19.7328 21.681 19.3617 21.2067 19.0492C20.7521 18.7172 20.2482 18.4634 19.6948 18.2876C19.1414 18.1118 18.5485 18.0239 17.916 18.0239C17.1255 18.0239 16.3745 18.1704 15.663 18.4634C14.9712 18.7368 14.3586 19.1371 13.8249 19.6644C13.3111 20.1722 12.9059 20.7972 12.6095 21.5393C12.313 22.2814 12.1648 23.1114 12.1648 24.0293C12.1648 24.9277 12.313 25.7479 12.6095 26.4901C12.9059 27.2127 13.321 27.8376 13.8546 28.3649C14.3882 28.8922 15.0305 29.2926 15.7816 29.566C16.5523 29.8394 17.4022 29.9761 18.3311 29.9761C18.9635 29.9761 19.5663 29.8883 20.1395 29.7125C20.7126 29.5367 21.2364 29.3024 21.7107 29.0094C22.2048 28.6969 22.6396 28.3454 23.0151 27.9548L25.446 31.7631C24.9519 32.3099 24.2899 32.7982 23.4598 33.2278C22.6495 33.6575 21.7403 33.9993 20.7324 34.2532C19.7442 34.4875 18.7461 34.6047 17.7382 34.6047Z" fill="white"/>
<path d="M26.3721 34.3219V13.3954H30.9523V22.3599L30.0188 22.6992C30.2327 22.0205 30.6119 21.4078 31.1565 20.8611C31.7205 20.2955 32.3915 19.843 33.1695 19.5037C33.9474 19.1643 34.7643 18.9946 35.6201 18.9946C36.787 18.9946 37.7692 19.2303 38.5666 19.7016C39.364 20.1541 39.9669 20.8422 40.3753 21.766C40.7838 22.6709 40.988 23.7832 40.988 25.1029V34.3219H36.291V25.4705C36.291 24.8673 36.2035 24.3677 36.0285 23.9718C35.8534 23.5759 35.5812 23.2836 35.2116 23.0951C34.8615 22.8877 34.4239 22.7935 33.8988 22.8123C33.4904 22.8123 33.1111 22.8783 32.7611 23.0103C32.411 23.1234 32.1095 23.3025 31.8567 23.5476C31.6038 23.7738 31.3996 24.0377 31.244 24.3394C31.1079 24.641 31.0398 24.971 31.0398 25.3292V34.3219H28.7351C28.1905 34.3219 27.7238 34.3219 27.3348 34.3219C26.9458 34.3219 26.6249 34.3219 26.3721 34.3219Z" fill="#E60712"/>
</svg>
