<svg width="24" height="24" viewBox="0 0 24 24" fill="none" xmlns="http://www.w3.org/2000/svg">
<path d="M20.1247 6.21913C19.6934 5.87412 19.0641 5.94404 18.7191 6.37531C18.3741 6.80657 18.444 7.43586 18.8753 7.78087L20.1247 6.21913ZM15.2003 4.84084C15.6315 5.18585 16.2608 5.11593 16.6058 4.68467C16.9508 4.25341 16.8809 3.62412 16.4497 3.27911L15.2003 4.84084ZM13.8741 2.49927L13.2494 3.28014L13.8741 2.49927ZM3 19V10.4419H1V19H3ZM3.75061 8.88014L10.7506 3.28014L9.50122 1.7184L2.50122 7.3184L3.75061 8.88014ZM21 10.4419V19H23V10.4419H21ZM19 21H16V23H19V21ZM17 22V15H15V22H17ZM14 12H10V14H14V12ZM16 21H8V23H16V21ZM8 21H5V23H8V21ZM7 15V22H9V15H7ZM18.8753 7.78087L20.2494 8.88014L21.4988 7.3184L20.1247 6.21913L18.8753 7.78087ZM13.2494 3.28014L15.2003 4.84084L16.4497 3.27911L14.4988 1.7184L13.2494 3.28014ZM10 12C8.34315 12 7 13.3431 7 15H9C9 14.4477 9.44772 14 10 14V12ZM17 15C17 13.3431 15.6569 12 14 12V14C14.5523 14 15 14.4477 15 15H17ZM23 10.4419C23 9.22674 22.4476 8.07749 21.4988 7.3184L20.2494 8.88014C20.7238 9.25968 21 9.83431 21 10.4419H23ZM10.7506 3.28014C11.481 2.69579 12.519 2.69579 13.2494 3.28014L14.4988 1.7184C13.0379 0.549699 10.9621 0.5497 9.50122 1.7184L10.7506 3.28014ZM3 10.4419C3 9.83431 3.27618 9.25968 3.75061 8.88014L2.50122 7.3184C1.55236 8.07749 1 9.22674 1 10.4419H3ZM1 19C1 21.2091 2.79086 23 5 23V21C3.89543 21 3 20.1046 3 19H1ZM21 19C21 20.1046 20.1046 21 19 21V23C21.2091 23 23 21.2091 23 19H21Z" fill="white"/>
</svg>
