<svg width="24" height="24" viewBox="0 0 24 24" fill="none" xmlns="http://www.w3.org/2000/svg">
<path fill-rule="evenodd" clip-rule="evenodd" d="M3 11C3 6.58172 6.58172 3 11 3C12.62 3 14.1248 3.48049 15.3833 4.30648C15.845 4.60953 16.465 4.48091 16.768 4.01919C17.0711 3.55748 16.9424 2.93751 16.4807 2.63447C14.9062 1.60105 13.0218 1 11 1C5.47715 1 1 5.47715 1 11C1 16.5228 5.47715 21 11 21C13.4013 21 15.6049 20.1536 17.3288 18.7429L21.034 22.4481C21.4245 22.8387 22.0577 22.8387 22.4482 22.4481C22.8387 22.0576 22.8387 21.4244 22.4482 21.0339L18.743 17.3287C20.1536 15.6048 21 13.4013 21 11C21 9.57664 20.702 8.22024 20.1641 6.99188C19.9425 6.48598 19.3528 6.25547 18.8469 6.47702C18.341 6.69857 18.1105 7.28828 18.3321 7.79418C18.7613 8.77437 19 9.85799 19 11C19 15.4183 15.4183 19 11 19C6.58172 19 3 15.4183 3 11Z" fill="white"/>
</svg>
