<svg width="24" height="24" viewBox="0 0 24 24" fill="none" xmlns="http://www.w3.org/2000/svg">
<path fill-rule="evenodd" clip-rule="evenodd" d="M12 24C18.6274 24 24 18.6274 24 12C24 5.37258 18.6274 0 12 0C5.37258 0 0 5.37258 0 12C0 18.6274 5.37258 24 12 24ZM9.3 5.68421C9.3 7.16666 10.5088 8.36842 12 8.36842C13.4912 8.36842 14.7 7.16666 14.7 5.68421C14.7 4.20176 13.4912 3 12 3C10.5088 3 9.3 4.20176 9.3 5.68421ZM3 10.1579C3 11.6403 4.20883 12.8421 5.7 12.8421C7.19117 12.8421 8.4 11.6403 8.4 10.1579C8.4 8.67545 7.19117 7.47368 5.7 7.47368C4.20883 7.47368 3 8.67545 3 10.1579ZM18.3 12.8421C16.8088 12.8421 15.6 11.6403 15.6 10.1579C15.6 8.67545 16.8088 7.47368 18.3 7.47368C19.7912 7.47368 21 8.67545 21 10.1579C21 11.6403 19.7912 12.8421 18.3 12.8421ZM11.1 11.9474C11.1 12.4415 11.5029 12.8421 12 12.8421C12.4971 12.8421 12.9 12.4415 12.9 11.9474C12.9 11.4532 12.4971 11.0526 12 11.0526C11.5029 11.0526 11.1 11.4532 11.1 11.9474ZM15.6 20C14.1088 20 12.9 18.7982 12.9 17.3158C12.9 15.8333 14.1088 14.6316 15.6 14.6316C17.0912 14.6316 18.3 15.8333 18.3 17.3158C18.3 18.7982 17.0912 20 15.6 20ZM5.7 17.3158C5.7 18.7982 6.90883 20 8.4 20C9.89117 20 11.1 18.7982 11.1 17.3158C11.1 15.8333 9.89117 14.6316 8.4 14.6316C6.90883 14.6316 5.7 15.8333 5.7 17.3158Z" fill="white"/>
</svg>
