<svg width="20" height="20" viewBox="0 0 20 20" fill="none" xmlns="http://www.w3.org/2000/svg">
<path d="M1.79681 11.9366C0.804457 11.9366 0 11.1321 0 10.1398V10.1398C0 9.14744 0.804458 8.34298 1.79681 8.34298H18.2032C19.1955 8.34298 20 9.14744 20 10.1398V10.1398C20 11.1321 19.1955 11.9366 18.2032 11.9366H1.79681ZM9.86427 19.6429C8.7597 19.6429 7.86427 18.7475 7.86427 17.6429V2.35718C7.86427 1.25261 8.7597 0.357178 9.86427 0.357178H10.0559C11.1605 0.357178 12.0559 1.25261 12.0559 2.35718V17.6429C12.0559 18.7475 11.1605 19.6429 10.0559 19.6429H9.86427Z" fill="white"/>
</svg>
