<svg width="24" height="24" viewBox="0 0 24 24" fill="none" xmlns="http://www.w3.org/2000/svg">
<path d="M13.6187 4.77197L14.5377 4.37759L14.5377 4.37759L13.6187 4.77197ZM13.5091 7.05232C13.727 7.55985 14.3149 7.79471 14.8225 7.5769C15.33 7.3591 15.5649 6.7711 15.347 6.26358L13.5091 7.05232ZM17.3295 7.73113C16.7795 7.68082 16.2928 8.08589 16.2425 8.63588C16.1922 9.18586 16.5973 9.67251 17.1473 9.72282L17.3295 7.73113ZM8.16943 8.59818L8.07833 7.60234L8.16943 8.59818ZM8.99728 7.99671L8.07833 7.60234L8.99728 7.99671ZM2.33981 10.8275L1.68076 11.5796L2.33981 10.8275ZM6.31367 14.3096L6.97271 13.5575L6.31367 14.3096ZM5.46171 20.4357L4.48646 20.2146L5.46171 20.4357ZM12.5116 18.8127L13.0232 17.9535L12.5116 18.8127ZM11.4883 18.8127L10.9767 17.9535L11.4883 18.8127ZM17.0513 21.516L16.5397 22.3752L17.0513 21.516ZM17.6862 14.3096L17.0272 13.5575L17.6862 14.3096ZM17.37 15.2828L16.3948 15.5039L17.37 15.2828ZM11.081 3.1413L10.1621 2.74693L11.081 3.1413ZM12.9189 3.1413L12 3.53567L12.9189 3.1413ZM21.0011 10.0754L17.0272 13.5575L18.3453 15.0617L22.3192 11.5796L21.0011 10.0754ZM16.3948 15.5039L17.563 20.6568L19.5135 20.2146L18.3453 15.0617L16.3948 15.5039ZM17.563 20.6568L13.0232 17.9535L12 19.6719L16.5397 22.3752L17.563 20.6568ZM10.9767 17.9535L6.43697 20.6568L7.46025 22.3752L12 19.6719L10.9767 17.9535ZM6.43697 20.6568L7.60514 15.5039L5.65463 15.0617L4.48646 20.2146L6.43697 20.6568ZM6.97271 13.5575L2.99885 10.0754L1.68076 11.5796L5.65463 15.0617L6.97271 13.5575ZM2.99885 10.0754L8.26053 9.59402L8.07833 7.60234L2.81665 8.08368L2.99885 10.0754ZM9.91623 8.39109L12 3.53567L10.1621 2.74693L8.07833 7.60234L9.91623 8.39109ZM12 3.53567L12.6998 5.16634L14.5377 4.37759L13.8379 2.74693L12 3.53567ZM12.6998 5.16634L13.5091 7.05232L15.347 6.26358L14.5377 4.37759L12.6998 5.16634ZM17.1473 9.72282L21.0011 10.0754L21.1833 8.08368L17.3295 7.73113L17.1473 9.72282ZM8.26053 9.59402C8.99133 9.52717 9.62682 9.06546 9.91623 8.39109L8.07833 7.60234H8.07833L8.26053 9.59402ZM2.99885 10.0754L2.99885 10.0754L2.81665 8.08368C1.06651 8.24378 0.358979 10.4213 1.68076 11.5796L2.99885 10.0754ZM7.60514 15.5039C7.76738 14.7882 7.52465 14.0411 6.97271 13.5575L5.65463 15.0617L7.60514 15.5039ZM6.43697 20.6568H6.43697L4.48646 20.2146C4.0979 21.9286 5.95025 23.2744 7.46025 22.3752L6.43697 20.6568ZM13.0232 17.9535C12.3927 17.578 11.6072 17.578 10.9767 17.9535L12 19.6719L13.0232 17.9535ZM17.563 20.6568L16.5397 22.3752C18.0497 23.2744 19.902 21.9286 19.5135 20.2146L17.563 20.6568ZM17.0272 13.5575C16.4753 14.0411 16.2325 14.7882 16.3948 15.5039L18.3453 15.0617H18.3453L17.0272 13.5575ZM22.3192 11.5796C23.6409 10.4213 22.9334 8.24378 21.1833 8.08368L21.0011 10.0754L22.3192 11.5796ZM12 3.53567L13.8379 2.74693C13.1448 1.13192 10.8551 1.13192 10.1621 2.74693L12 3.53567Z" fill="white"/>
</svg>
