<svg width="104" height="16" viewBox="0 0 104 16" fill="none" xmlns="http://www.w3.org/2000/svg">
<path d="M8.11822 16C6.94037 16 5.85198 15.8085 4.85304 15.4254C3.86901 15.0276 3.01172 14.4751 2.28115 13.768C1.55059 13.046 0.984027 12.1989 0.58147 11.2265C0.193823 10.2394 0 9.15654 0 7.9779C0 6.82873 0.208733 5.76796 0.626199 4.79558C1.04366 3.8232 1.61768 2.98343 2.34825 2.27624C3.09372 1.55433 3.96593 0.994475 4.96486 0.596685C5.97871 0.198895 7.08201 0 8.27477 0C9.02025 0 9.75081 0.0957643 10.4665 0.287293C11.1821 0.478822 11.8456 0.766114 12.4569 1.14917C13.0831 1.5175 13.6198 1.95948 14.0671 2.47514L11.7412 5.10497C11.4281 4.78085 11.0927 4.50092 10.7348 4.26519C10.3919 4.01473 10.0117 3.8232 9.59426 3.69061C9.17679 3.55801 8.72951 3.49171 8.25241 3.49171C7.65603 3.49171 7.08946 3.60221 6.55272 3.8232C6.03089 4.02947 5.5687 4.33149 5.16614 4.72928C4.77849 5.11234 4.47285 5.58379 4.24921 6.14365C4.02556 6.7035 3.91374 7.32965 3.91374 8.0221C3.91374 8.69982 4.02556 9.3186 4.24921 9.87845C4.47285 10.4236 4.78595 10.895 5.1885 11.2928C5.59106 11.6906 6.07562 11.9926 6.64218 12.1989C7.22365 12.4052 7.86476 12.5083 8.56551 12.5083C9.04261 12.5083 9.49735 12.442 9.92972 12.3094C10.3621 12.1768 10.7572 12 11.115 11.779C11.4878 11.5433 11.8158 11.2781 12.0991 10.9834L13.9329 13.8564C13.5602 14.2689 13.0607 14.6372 12.4345 14.9613C11.8232 15.2855 11.1374 15.5433 10.377 15.7348C9.63154 15.9116 8.8786 16 8.11822 16Z" fill="white"/>
<path d="M14.8137 15.779V12.6188V3.46961V0.309392H18.6156V3.46961V12.6188V15.779H14.8137Z" fill="white"/>
<path d="M20.8461 15.779V2.57127C20.8461 1.32207 21.8588 0.309392 23.108 0.309392C23.8236 0.309392 24.497 0.648049 24.9238 1.22253L32.4532 11.3591L31.7152 11.2486C31.6406 10.7624 31.581 10.2983 31.5362 9.85635C31.4915 9.41436 31.4468 8.97974 31.4021 8.55249C31.3722 8.12523 31.3424 7.69061 31.3126 7.24862C31.2977 6.80663 31.2828 6.32781 31.2679 5.81215C31.2679 5.2965 31.2679 4.73665 31.2679 4.1326V0.309392H34.958V13.4822C34.958 14.7507 33.9297 15.779 32.6612 15.779C31.9389 15.779 31.2586 15.4392 30.8248 14.8616L22.9484 4.37569L24.0889 4.53039C24.1635 5.23757 24.2231 5.84162 24.2679 6.34254C24.3275 6.82873 24.3722 7.26335 24.402 7.64641C24.4468 8.02947 24.4766 8.37569 24.4915 8.68508C24.5064 8.99447 24.5139 9.30387 24.5139 9.61326C24.5288 9.90792 24.5362 10.2394 24.5362 10.6077V15.779H20.8461Z" fill="white"/>
<path d="M37.8626 15.779C37.3103 15.779 36.8626 15.3313 36.8626 14.779V1.30939C36.8626 0.757108 37.3103 0.309392 37.8626 0.309392H47.7764V3.51381H40.5527V12.5746H48V15.779H37.8626ZM38.6517 9.43646V6.38674H46.77V9.43646H38.6517Z" fill="white"/>
<path d="M50 15.7867V0H53.4553V6.76267L52.751 7.01867C52.9124 6.50667 53.1985 6.04444 53.6093 5.632C54.0348 5.20533 54.541 4.864 55.1279 4.608C55.7148 4.352 56.331 4.224 56.9766 4.224C57.8569 4.224 58.5978 4.40178 59.1994 4.75733C59.8009 5.09867 60.2558 5.61778 60.5639 6.31467C60.872 6.99733 61.026 7.83644 61.026 8.832V15.7867H57.4827V9.10933C57.4827 8.65422 57.4167 8.27733 57.2847 7.97867C57.1526 7.68 56.9472 7.45956 56.6684 7.31733C56.4043 7.16089 56.0742 7.08978 55.6781 7.104C55.37 7.104 55.0839 7.15378 54.8198 7.25333C54.5557 7.33867 54.3282 7.47378 54.1375 7.65867C53.9468 7.82933 53.7927 8.02844 53.6753 8.256C53.5726 8.48356 53.5213 8.73244 53.5213 9.00267V15.7867H51.7827C51.3718 15.7867 51.0197 15.7867 50.7263 15.7867C50.4328 15.7867 50.1907 15.7867 50 15.7867Z" fill="#E60712"/>
<path d="M67.507 16C66.2892 16 65.2035 15.744 64.2498 15.232C63.3108 14.72 62.5625 14.0231 62.0049 13.1413C61.4621 12.2596 61.1907 11.2498 61.1907 10.112C61.1907 8.97422 61.4621 7.96444 62.0049 7.08267C62.5625 6.20089 63.3108 5.504 64.2498 4.992C65.2035 4.48 66.2892 4.224 67.507 4.224C68.7247 4.224 69.8031 4.48 70.7421 4.992C71.6958 5.504 72.4441 6.20089 72.987 7.08267C73.5298 7.96444 73.8013 8.97422 73.8013 10.112C73.8013 11.2498 73.5298 12.2596 72.987 13.1413C72.4441 14.0231 71.6958 14.72 70.7421 15.232C69.8031 15.744 68.7247 16 67.507 16ZM67.507 13.056C68.0352 13.056 68.5047 12.928 68.9155 12.672C69.3263 12.416 69.6491 12.0676 69.8838 11.6267C70.1186 11.1858 70.2286 10.6809 70.214 10.112C70.2286 9.54311 70.1186 9.03822 69.8838 8.59733C69.6491 8.14222 69.3263 7.78667 68.9155 7.53067C68.5047 7.27467 68.0352 7.14667 67.507 7.14667C66.9788 7.14667 66.5019 7.27467 66.0764 7.53067C65.6656 7.78667 65.3428 8.14222 65.1081 8.59733C64.8733 9.03822 64.7633 9.54311 64.778 10.112C64.7633 10.6809 64.8733 11.1858 65.1081 11.6267C65.3428 12.0676 65.6656 12.416 66.0764 12.672C66.5019 12.928 66.9788 13.056 67.507 13.056Z" fill="#E60712"/>
<path d="M74.1168 15.7867V4.45867H77.4621L77.5721 6.50667L77.1099 6.528C77.286 6.15822 77.5061 5.83111 77.7702 5.54667C78.0489 5.26222 78.3571 5.02756 78.6945 4.84267C79.0466 4.64356 79.4061 4.49422 79.7729 4.39467C80.1544 4.29511 80.5359 4.24533 80.9173 4.24533C81.4895 4.24533 82.0104 4.33067 82.4799 4.50133C82.9494 4.672 83.3602 4.94933 83.7124 5.33333C84.0645 5.70311 84.3432 6.208 84.5487 6.848L83.9985 6.80533L84.1745 6.464C84.3653 6.12267 84.6073 5.81689 84.9008 5.54667C85.2089 5.26222 85.5464 5.02756 85.9132 4.84267C86.28 4.64356 86.6614 4.49422 87.0576 4.39467C87.4537 4.29511 87.8352 4.24533 88.202 4.24533C89.1263 4.24533 89.8966 4.42311 90.5128 4.77867C91.1291 5.12 91.5912 5.63911 91.8993 6.336C92.2221 7.03289 92.3835 7.87911 92.3835 8.87467V15.7867H88.8402V9.152C88.8402 8.69689 88.7742 8.32 88.6422 8.02133C88.5101 7.72267 88.312 7.50222 88.0479 7.36C87.7985 7.20356 87.4831 7.12533 87.1016 7.12533C86.7935 7.12533 86.5074 7.17511 86.2433 7.27467C85.9939 7.37422 85.7738 7.50933 85.583 7.68C85.407 7.85067 85.2676 8.04978 85.1649 8.27733C85.0622 8.50489 85.0108 8.76089 85.0108 9.04533V15.7867H81.4675V9.13067C81.4675 8.704 81.4015 8.34133 81.2695 8.04267C81.1374 7.744 80.9393 7.51644 80.6752 7.36C80.4111 7.20356 80.103 7.12533 79.7509 7.12533C79.4428 7.12533 79.1567 7.17511 78.8926 7.27467C78.6432 7.37422 78.4231 7.50933 78.2323 7.68C78.0563 7.85067 77.9169 8.04978 77.8142 8.27733C77.7115 8.50489 77.6601 8.75378 77.6601 9.024V15.7867H74.1168Z" fill="#E60712"/>
<path d="M98.9117 16C97.6206 16 96.4982 15.7511 95.5445 15.2533C94.5908 14.7413 93.8499 14.0516 93.3217 13.184C92.7935 12.3022 92.5294 11.2996 92.5294 10.176C92.5294 9.30844 92.6761 8.512 92.9696 7.78667C93.263 7.06133 93.6738 6.43556 94.202 5.90933C94.7302 5.36889 95.3538 4.95644 96.0727 4.672C96.8063 4.37333 97.6059 4.224 98.4716 4.224C99.2932 4.224 100.041 4.36622 100.716 4.65067C101.406 4.93511 102 5.33333 102.499 5.84533C102.998 6.35733 103.379 6.96178 103.643 7.65867C103.908 8.35556 104.025 9.11644 103.996 9.94133L103.974 10.8587H94.6642L94.158 8.93867H101.113L100.738 9.344V8.91733C100.709 8.56178 100.592 8.24889 100.386 7.97867C100.196 7.69422 99.9388 7.47378 99.616 7.31733C99.2932 7.16089 98.9264 7.08267 98.5156 7.08267C97.9434 7.08267 97.4519 7.19644 97.041 7.424C96.6449 7.63733 96.3441 7.95733 96.1387 8.384C95.9333 8.79644 95.8306 9.30844 95.8306 9.92C95.8306 10.5458 95.9627 11.0933 96.2268 11.5627C96.5055 12.0178 96.9017 12.3733 97.4152 12.6293C97.9434 12.8853 98.5669 13.0133 99.2859 13.0133C99.7847 13.0133 100.225 12.9422 100.606 12.8C101.003 12.6578 101.428 12.416 101.883 12.0747L103.533 14.336C103.079 14.72 102.594 15.0329 102.081 15.2747C101.567 15.5164 101.039 15.6942 100.496 15.808C99.9681 15.936 99.4399 16 98.9117 16Z" fill="#E60712"/>
</svg>
